<svg id="Layer_1" data-name="Layer 1" xmlns="http://www.w3.org/2000/svg" viewBox="0 0 996.09 770.34"><defs><style>.cls-1{fill:#d14739;}.cls-2{fill:#b2b212;}.cls-3{fill:#387d44;}.cls-4{fill:#277fbe;}.cls-5{fill:#e79139;}.cls-6{fill:#7f878e;}.cls-7{font-size:36px;}.cls-12,.cls-7,.cls-8{fill:#fff;}.cls-11,.cls-7,.cls-9{font-family:Myriad Pro;}.cls-7,.cls-9{font-weight:700;}.cls-11,.cls-9{font-size:24px;}.cls-10{letter-spacing:-1px;}.cls-12{stroke:#000;stroke-miterlimit:10;}</style></defs><title>boston_t</title><g id="wline"><line class="cls-1" x1="122.98" y1="82.27" x2="906.06" y2="333.04"/><path class="cls-1" d="M282.15,225.49l20.94,6.71,57,18.25,84.3,27,102.85,32.94,112.65,36.08L773.6,382.87l105.6,33.82,89.65,28.71,64.49,20.65c10.18,3.26,20.32,6.78,30.58,9.79,0.44,0.13.88,0.28,1.32,0.42,9,2.87,20-3.36,22.14-12.57a18.4,18.4,0,0,0-12.57-22.14l-20.94-6.71-57-18.25-84.3-27L809.71,356.66,697.06,320.58,583.35,284.17l-105.6-33.82-89.65-28.71L323.62,201c-10.18-3.26-20.32-6.78-30.58-9.79-0.44-.13-0.88-0.28-1.32-0.42-9-2.87-20,3.36-22.14,12.57a18.4,18.4,0,0,0,12.57,22.14h0Z" transform="translate(-163.95 -125.87)"/></g><g id="pline"><line class="cls-2" x1="261.21" y1="275.69" x2="776.93" y2="440.84"/><path class="cls-3" d="M420.38,418.92l51.46,16.48,123.07,39.41,148.82,47.66,129,41.32c20.78,6.66,41.47,14,62.46,20,0.29,0.08.58,0.19,0.88,0.28,9,2.87,20-3.36,22.14-12.57a18.4,18.4,0,0,0-12.57-22.14l-51.46-16.48L771.14,493.46,622.33,445.81l-129-41.32c-20.78-6.66-41.47-14-62.46-20-0.29-.08-0.58-0.19-0.88-0.28-9-2.87-20,3.36-22.14,12.57a18.4,18.4,0,0,0,12.57,22.14h0Z" transform="translate(-163.95 -125.87)"/></g><g id="eline"><line class="cls-4" x1="398" y1="215.22" x2="398.08" y2="672.51"/><path class="cls-4" d="M544,341.08v45.53l0,109.32,0,132.21L544,742c0,18.5-.52,37.09,0,55.59,0,0.26,0,.52,0,0.78,0,9.42,8.28,18.44,18,18s18-7.91,18-18V752.85l0-109.32,0-132.21,0-113.86c0-18.5.52-37.09,0-55.59,0-.26,0-0.52,0-0.78,0-9.42-8.28-18.44-18-18s-18,7.91-18,18h0Z" transform="translate(-163.95 -125.87)"/></g><g id="hline"><line class="cls-4" x1="234.98" y1="310.51" x2="235.01" y2="473.95"/><path class="cls-5" d="M380.94,436.38l0,143.27v20.17c0,9.42,8.28,18.44,18,18s18-7.91,18-18l0-143.27V436.38c0-9.42-8.28-18.44-18-18s-18,7.91-18,18h0Z" transform="translate(-163.95 -125.87)"/></g><g id="lline"><line class="cls-2" x1="531.59" y1="678.42" x2="772.93" y2="579.91"/><path class="cls-6" d="M700.33,821.65l81.6-33.31,130-53.06,29.75-12.14c8.68-3.54,15.81-12.13,12.57-22.14-2.71-8.38-12.81-16.38-22.14-12.57l-81.6,33.31-130,53.06-29.75,12.14c-8.68,3.54-15.81,12.13-12.57,22.14,2.71,8.38,12.81,16.38,22.14,12.57h0Z" transform="translate(-163.95 -125.87)"/></g><g id="w-label"><rect class="cls-1" width="108.08" height="51.36" rx="25.68" ry="25.68"/><text class="cls-7" transform="translate(31.12 38.52)">WL</text></g><g id="l-label"><rect class="cls-6" x="740.27" y="681.08" width="108.08" height="51.36" rx="25.68" ry="25.68"/><text class="cls-7" transform="translate(777.68 719.15)">LL</text></g><g id="p-label"><rect class="cls-3" x="819.63" y="442.48" width="108.08" height="51.36" rx="25.68" ry="25.68"/><text class="cls-7" transform="translate(853.32 479.12)">PL</text></g><g id="e-label"><rect class="cls-4" x="284.49" y="707.55" width="108.08" height="51.36" rx="25.68" ry="25.68"/><text class="cls-7" transform="translate(320.89 746.01)">EL</text></g><g id="h-label"><rect class="cls-5" x="112.37" y="514.04" width="108.08" height="51.36" rx="25.68" ry="25.68"/><text class="cls-7" transform="translate(143.61 552.5)">HL</text></g><g id="w01"><circle class="cls-8" cx="129.08" cy="84.23" r="14.53"/><text class="cls-9" transform="translate(151.74 66.33)"><tspan class="cls-10">P</tspan><tspan x="12.5" y="0">A</tspan><tspan x="28.25" y="0">L</tspan><tspan x="40.66" y="0">ANTIR</tspan><tspan x="107.18" y="0"> </tspan><tspan x="111.09" y="0">TECHNO</tspan><tspan x="201.64" y="0">L</tspan><tspan x="213" y="0">OGIES</tspan></text></g><g id="w02"><circle class="cls-8" cx="274.32" cy="130.74" r="14.53"/><text class="cls-11" transform="translate(289.4 111.49)">G<tspan x="15.62" y="0">oogle</tspan></text></g><g id="w03"><text class="cls-9" transform="translate(446.05 159.66)">HA<tspan x="32.28" y="0">R</tspan><tspan class="cls-10" x="46.37" y="0">V</tspan><tspan x="60.34" y="0">ARD</tspan></text><circle class="cls-12" cx="430.03" cy="180.96" r="14.53"/></g><g id="e01"><g id="e01-2" data-name="e01"><text class="cls-9" transform="translate(268.38 227.2)">HA<tspan x="32.28" y="0">R</tspan><tspan class="cls-10" x="46.37" y="0">V</tspan><tspan x="60.34" y="0">ARD</tspan></text></g><circle class="cls-12" cx="397.95" cy="218.98" r="14.53"/></g><g id="junction-w03-e01"><path class="cls-12" d="M609,306.62a14.52,14.52,0,0,1-14.52,14.53,13.5,13.5,0,0,1-2.31-.19l-16.78,18.72a14.54,14.54,0,1,1-13.4-8.89c0.33,0,.66,0,1,0l17.68-19.72A14.52,14.52,0,1,1,609,306.62Z" transform="translate(-163.95 -125.87)"/></g><g id="w04"><circle class="cls-8" cx="581.62" cy="229.14" r="14.53"/><text class="cls-11" transform="translate(595.95 208.27)">C<tspan x="13.66" y="0">ollab</tspan><tspan x="63.38" y="0">o</tspan><tspan x="76.92" y="0">-</tspan><tspan x="84.29" y="0">S</tspan><tspan x="96.26" y="0">chool</tspan></text></g><g id="w05"><circle class="cls-8" cx="739.07" cy="279.56" r="14.53"/><text class="cls-11" transform="translate(754.03 260.33)">M<tspan x="19.44" y="0">odit</tspan></text></g><g id="w06"><circle class="cls-8" cx="901.57" cy="331.6" r="14.53"/><text class="cls-9" transform="translate(919.68 310.7)">R<tspan x="14.14" y="0">O</tspan><tspan x="31.18" y="0">VER</tspan></text></g><g id="h02"><circle class="cls-8" cx="235" cy="473.88" r="14.53"/><text class="cls-9" transform="translate(90.15 481.44)">SWIMMING</text></g><g id="p04"><circle class="cls-8" cx="773.28" cy="439.67" r="14.53"/><text class="cls-9" transform="translate(798.39 428.31)">C<tspan x="13.56" y="0">OL</tspan><tspan x="43.03" y="0">L</tspan><tspan x="55.44" y="0">ABOGUI</tspan></text></g><g id="p03"><circle class="cls-8" cx="596.15" cy="382.95" r="14.53"/><text class="cls-11" transform="translate(617.63 367.5)">ga<tspan x="24.98" y="0">k</tspan><tspan x="36.34" y="0">u</tspan></text></g><g id="e03"><circle class="cls-8" cx="398.08" cy="438.12" r="14.53"/><text class="cls-11" transform="translate(428.03 447.03)">Uni<tspan x="34.46" y="0">v</tspan><tspan x="45.77" y="0">ersi</tspan><tspan x="80.76" y="0">t</tspan><tspan x="88.92" y="0">y of</tspan><tspan x="125.49" y="0"> </tspan><tspan class="cls-10" x="129.6" y="0">T</tspan><tspan x="139.82" y="0">o</tspan><tspan x="153" y="0">k</tspan><tspan x="164.56" y="0">y</tspan><tspan x="175.63" y="0">o</tspan></text></g><g id="e04"><circle class="cls-8" cx="398.08" cy="551.89" r="14.53"/><text class="cls-11" transform="translate(424.98 555.05)">A<tspan x="14.62" y="0">me</tspan><tspan x="46.66" y="0">r</tspan><tspan x="54.6" y="0">ican </tspan><tspan x="100.94" y="0">S</tspan><tspan x="112.92" y="0">chool of </tspan><tspan x="199.37" y="0">P</tspan><tspan x="211.51" y="0">a</tspan><tspan x="223.08" y="0">r</tspan><tspan x="231.02" y="0">is</tspan></text></g><g id="e05"><circle class="cls-8" cx="398.08" cy="665.66" r="14.53"/><text class="cls-9" transform="translate(139.61 672.82)">A<tspan x="15.89" y="0">Z</tspan><tspan x="29.93" y="0">ABU HIGH SCHOOL</tspan></text></g><g id="l01"><circle class="cls-8" cx="535.64" cy="676.77" r="14.53"/><text class="cls-9" transform="translate(546.13 715.44)">ENGLISH</text></g><g id="l02"><circle class="cls-8" cx="660.31" cy="625.88" r="14.53"/><text class="cls-11" transform="translate(680.79 658.94)">F<tspan x="11.06" y="0">r</tspan><tspan x="18.67" y="0">ench</tspan></text></g><g id="l03"><circle class="cls-8" cx="773.28" cy="579.77" r="14.53"/><text class="cls-9" transform="translate(797.39 583.46)">JA<tspan class="cls-10" x="25.61" y="0">P</tspan><tspan x="38.11" y="0">ANESE</tspan></text></g><g id="p01"><text class="cls-9" transform="translate(121.12 259.98)">P<tspan x="13.94" y="0">R</tspan><tspan x="28.39" y="0">A</tspan><tspan x="43.56" y="0">XSP</tspan><tspan x="85.18" y="0">O</tspan><tspan x="101.71" y="0">T</tspan><tspan x="114.65" y="0">S</tspan></text><circle class="cls-12" cx="264.21" cy="276.69" r="14.53"/></g><g id="h01"><text class="cls-9" transform="translate(67.04 320.71)">BREAK<tspan x="72.02" y="0">D</tspan><tspan x="88.34" y="0">ANCE</tspan></text><circle class="cls-12" cx="235" cy="311.72" r="14.53"/></g><g id="junction-p02-h02"><path class="cls-12" d="M442.79,402.55a14.55,14.55,0,0,1-17.72,14.18l-12.48,15.9a14.71,14.71,0,0,1,.86,4.95A14.52,14.52,0,1,1,398.93,423a14.21,14.21,0,0,1,2.93.3l12.65-16.12A14.53,14.53,0,1,1,442.79,402.55Z" transform="translate(-163.95 -125.87)"/></g><g id="e02"><g id="e02-2" data-name="e02"><text class="cls-11" transform="translate(420.03 301.24)">E<tspan x="11.71" y="0">c</tspan><tspan x="22.32" y="0">ole </tspan><tspan x="58.27" y="0">P</tspan><tspan x="70.44" y="0">oly</tspan><tspan x="100.58" y="0">t</tspan><tspan x="108.38" y="0">echnique</tspan></text></g><circle class="cls-12" cx="398.95" cy="319.79" r="14.53"/></g><g id="p02"><g id="p02-2" data-name="p02"><text class="cls-11" transform="translate(480.83 327.87)">A<tspan x="14.4" y="0">dapti</tspan><tspan x="66.72" y="0">v</tspan><tspan x="78.02" y="0">e Bu</tspan><tspan x="121.37" y="0">r</tspan><tspan x="129.31" y="0">r</tspan><tspan x="136.92" y="0">o</tspan><tspan x="149.93" y="0">w</tspan><tspan x="167.45" y="0">s</tspan><tspan x="176.95" y="0">-</tspan><tspan x="184.05" y="0">W</tspan><tspan x="204.24" y="0">heeler</tspan></text></g><circle class="cls-12" cx="448.05" cy="335.87" r="14.53"/></g><g id="junction-e02-p02"><path class="cls-12" d="M626.32,458.88a14.53,14.53,0,0,1-28.42,6.07l-25.17-8.33A14.54,14.54,0,1,1,577.08,443l0,0.16L602,451.38a14.38,14.38,0,0,1,7.14-3.78A14.54,14.54,0,0,1,626.32,458.88Z" transform="translate(-163.95 -125.87)"/></g></svg>