<svg id="Layer_1" data-name="Layer 1" xmlns="http://www.w3.org/2000/svg" viewBox="0 0 756.26 115.51"><defs><style>.cls-1,.cls-5{font-size:33px;font-family:Myriad Pro;}.cls-1{font-weight:700;}.cls-2{letter-spacing:-1px;}.cls-3{letter-spacing:-3px;}.cls-4{fill:#fff;stroke:#000;stroke-width:4.4px;}</style></defs><title>y_logo</title><g id="full_name"><text class="cls-1" transform="translate(117.79 39.81)">H<tspan x="22.84" y="0">i</tspan><tspan x="31.88" y="0">r</tspan><tspan x="44.15" y="0">ohisa</tspan><tspan class="cls-2" x="123.32" y="0"> </tspan><tspan class="cls-3" x="128.67" y="0">Y</tspan><tspan x="145.5" y="0">amada</tspan></text></g><g id="not_full_name"><circle class="cls-4" cx="50" cy="50" r="47.8"/><path d="M174,227.22l-35.39-11.63L134,230.12l25.46,8.37c2.4-1.86,4.8-3.73,7.26-5.77S171.88,229.41,174,227.22Z" transform="translate(-117.3 -197.64)"/><path d="M174.9,236.84c-1.56-3.25-3.2-6.5-4.6-9.8-1.19-.41-2.38-0.83-3.57-1.17-1.06,1.58-2.26,3.06-3.23,4.77-1.55,2.71-3.1,5.23-4.65,7.75h0v40.8h16.9v-40.8H176A7.9,7.9,0,0,1,174.9,236.84Z" transform="translate(-117.3 -197.64)"/><path d="M161.26,227.46l35.39-11.63,4.66,14.52-25.46,8.37c-2.4-1.86-4.8-3.73-7.26-5.77S163.4,229.65,161.26,227.46Z" transform="translate(-117.3 -197.64)"/><text class="cls-5" transform="translate(117.79 77.51)">R<tspan x="18.15" y="0">apid</tspan><tspan class="cls-2" x="79.17" y="0"> </tspan><tspan class="cls-2" x="84.81" y="0">T</tspan><tspan x="99.72" y="0">r</tspan><tspan x="110.35" y="0">ansit / Key Bus </tspan><tspan x="314.68" y="0">R</tspan><tspan x="332.57" y="0">ou</tspan><tspan x="368.87" y="0">t</tspan><tspan x="379.59" y="0">es </tspan></text><text class="cls-1" transform="translate(372.36 40.14)"><tspan class="cls-2">T</tspan><tspan x="16.3" y="0">r</tspan><tspan x="28.48" y="0">ans</tspan><tspan x="79.56" y="0">p</tspan><tspan x="99.4" y="0">o</tspan><tspan x="118.44" y="0">r</tspan><tspan x="131.67" y="0">t</tspan><tspan x="143.78" y="0">a</tspan><tspan x="160.94" y="0">tion </tspan><tspan x="227.14" y="0">A</tspan><tspan x="248.29" y="0">uthori</tspan><tspan x="339.6" y="0">t</tspan><tspan x="351.87" y="0">y</tspan></text></g></svg>
